<?xml version="1.0" encoding="utf-8"?>
<!-- Generator: Adobe Illustrator 26.3.1, SVG Export Plug-In . SVG Version: 6.00 Build 0)  -->
<svg version="1.1" id="Layer_1" xmlns="http://www.w3.org/2000/svg" xmlns:xlink="http://www.w3.org/1999/xlink" x="0px" y="0px"
	 viewBox="0 0 459.6 459.6" style="enable-background:new 0 0 459.6 459.6;" xml:space="preserve">
<style type="text/css">
	.st0{fill:#7F7F7F;}
</style>
<g>
	<g>
		<g>
			<path class="st0" d="M424.6,50.6H136.3c-19.3,0-35,15.7-35,35v52.3c16,0,25.5,0,41.7,0c12.9-31.2,53.9-39.8,78.2-15.5l73.4,73.4
				c18.7,18.7,18.7,49.1,0,67.8L221.2,337c-24.3,24.3-65.2,15.7-78.2-15.5c-16.1,0-25.7,0-41.7,0V374c0,19.3,15.7,35,35,35h288.3
				c19.3,0,35-15.7,35-35V85.7C459.6,66.3,443.9,50.6,424.6,50.6z"/>
			<path class="st0" d="M171.3,303.3c0,14.2,17.2,21.4,27.3,11.3l73.4-73.4c6.2-6.2,6.2-16.4,0-22.6l-73.4-73.4
				c-10-10-27.3-2.9-27.3,11.3c0,5.8,0,7.7,0,13.5H16c-8.8,0-16,7.2-16,16v87.9c0,8.8,7.2,16,16,16c4.5,0,151,0,155.3,0V303.3z"/>
		</g>
	</g>
</g>
</svg>
