<?xml version="1.0" encoding="utf-8"?>
<!-- Generator: Adobe Illustrator 26.3.1, SVG Export Plug-In . SVG Version: 6.00 Build 0)  -->
<svg version="1.1" id="Layer_1" xmlns="http://www.w3.org/2000/svg" xmlns:xlink="http://www.w3.org/1999/xlink" x="0px" y="0px"
	 viewBox="0 0 330 330" style="enable-background:new 0 0 330 330;" xml:space="preserve">
<style type="text/css">
	.st0{fill:#FFFFFF;}
</style>
<g id="XMLID_823_">
	<path id="XMLID_824_" class="st0" d="M265,130h-15V85c0-46.9-38.1-85-85-85S80,38.1,80,85v45H65c-8.3,0-15,6.7-15,15v170
		c0,8.3,6.7,15,15,15h200c8.3,0,15-6.7,15-15V145C280,136.7,273.3,130,265,130z M110,85c0-30.3,24.7-55,55-55s55,24.7,55,55v45H110
		V85z M250,300H80V160h15h140h15V300z"/>
	<path id="XMLID_828_" class="st0" d="M196.9,198.1c-5.9-5.9-15.4-5.9-21.2,0L165,208.8l-10.6-10.6c-5.9-5.9-15.4-5.9-21.2,0
		s-5.9,15.4,0,21.2l10.6,10.6l-10.6,10.6c-5.9,5.9-5.9,15.4,0,21.2c2.9,2.9,6.8,4.4,10.6,4.4s7.7-1.5,10.6-4.4l10.6-10.6l10.6,10.6
		c2.9,2.9,6.8,4.4,10.6,4.4s7.7-1.5,10.6-4.4c5.9-5.9,5.9-15.4,0-21.2L186.2,230l10.6-10.6C202.7,213.5,202.7,204,196.9,198.1z"/>
</g>
</svg>
