<svg id="圖層_1" data-name="圖層 1" xmlns="http://www.w3.org/2000/svg" viewBox="0 0 840.84 225.55"><defs><style>.cls-1{fill:#fff;}.cls-2{fill:none;stroke:#fff;stroke-linecap:round;stroke-miterlimit:10;stroke-width:20px;}</style></defs><path class="cls-1" d="M297.57,93.85a30.16,30.16,0,0,1,15.13,4,29.08,29.08,0,0,1,11.06,10.92,29.45,29.45,0,0,1,4,14.9,29.78,29.78,0,0,1-4,15,29,29,0,0,1-10.9,11,30.1,30.1,0,0,1-15.21,3.94,28.38,28.38,0,0,1-20.88-8.7,30.15,30.15,0,0,1,1.12-43.36A28.57,28.57,0,0,1,297.57,93.85Zm.23,13.44a14.69,14.69,0,0,0-11.07,4.62,16.43,16.43,0,0,0-4.42,11.84q0,7.42,4.37,12a14.62,14.62,0,0,0,11.07,4.59,14.78,14.78,0,0,0,11.15-4.65,16.59,16.59,0,0,0,4.45-12q0-7.32-4.37-11.89A14.77,14.77,0,0,0,297.8,107.29Z"/><path class="cls-1" d="M339.39,95.32h14.27v5.83a34.16,34.16,0,0,1,8.79-5.7,21.37,21.37,0,0,1,8.06-1.6,19.52,19.52,0,0,1,14.36,5.91q5,5,5,14.85v37.58H375.71V127.28q0-10.17-.91-13.52a9.29,9.29,0,0,0-3.18-5.09,8.94,8.94,0,0,0-5.61-1.75,10.53,10.53,0,0,0-7.43,2.9,15.44,15.44,0,0,0-4.3,8q-.63,2.67-.62,11.54v22.82H339.39Z"/><path class="cls-1" d="M402.06,73.36h14.27v78.83H402.06Z"/><path class="cls-1" d="M434.86,71.9a8.72,8.72,0,0,1,6.43,2.72A9,9,0,0,1,444,81.21a8.91,8.91,0,0,1-2.66,6.5A8.6,8.6,0,0,1,435,90.4a8.74,8.74,0,0,1-6.49-2.74A9.17,9.17,0,0,1,425.79,81a9.1,9.1,0,0,1,9.07-9.1Zm-7.14,23.42H442v56.87H427.72Z"/><path class="cls-1" d="M455,95.32h14.27v5.83a34.37,34.37,0,0,1,8.8-5.7,21.33,21.33,0,0,1,8.06-1.6,19.54,19.54,0,0,1,14.36,5.91q4.95,5,4.95,14.85v37.58H491.28V127.28q0-10.17-.91-13.52a9.29,9.29,0,0,0-3.18-5.09,8.94,8.94,0,0,0-5.61-1.75,10.53,10.53,0,0,0-7.43,2.9,15.44,15.44,0,0,0-4.3,8q-.63,2.67-.63,11.54v22.82H455Z"/><path class="cls-1" d="M576.17,127.88H530.33a15.27,15.27,0,0,0,5.3,9.65,16.7,16.7,0,0,0,11,3.58,19,19,0,0,0,13.74-5.6l12,5.65a28.33,28.33,0,0,1-10.76,9.43,33.66,33.66,0,0,1-14.9,3.06q-13.38,0-21.8-8.44t-8.41-21.14q0-13,8.39-21.62t21-8.6q13.42,0,21.84,8.6t8.42,22.71ZM561.9,116.64a14.25,14.25,0,0,0-5.58-7.73,16.12,16.12,0,0,0-9.66-3,17.07,17.07,0,0,0-10.47,3.34q-2.82,2.1-5.24,7.37Z"/><path class="cls-1" d="M619.29,75.3h17.34q16.77,0,24.91,4.15T675,93q5.28,9.34,5.28,21.84a44.14,44.14,0,0,1-3,16.34,34,34,0,0,1-8.15,12.36,28.78,28.78,0,0,1-11.26,6.8q-6,1.88-21,1.88h-17.6Zm14.53,14.11v48.51h6.8q10,0,14.55-2.3a17.47,17.47,0,0,0,7.4-7.75,28.36,28.36,0,0,0,2.88-13.39q0-12.26-6.85-19-6.17-6.06-19.81-6.07Z"/><path class="cls-1" d="M734.6,95.32h14.27v56.87H734.6v-6a28.07,28.07,0,0,1-8.38,5.72,23.4,23.4,0,0,1-9.11,1.75q-11,0-19.06-8.54t-8-21.25q0-13.17,7.78-21.59a24.8,24.8,0,0,1,18.9-8.42,24.06,24.06,0,0,1,9.61,1.94,26.21,26.21,0,0,1,8.3,5.8ZM719.6,107a14.43,14.43,0,0,0-11,4.67,16.86,16.86,0,0,0-4.38,12,17,17,0,0,0,4.45,12.13,14.44,14.44,0,0,0,11,4.75,14.73,14.73,0,0,0,11.15-4.67q4.43-4.68,4.43-12.26,0-7.43-4.43-12A14.88,14.88,0,0,0,719.6,107Z"/><path class="cls-1" d="M757,95.32h14l11.44,32.35,12.3-32.35h8.55l12.08,32,11.45-32h14.06l-20.75,56.87H811l-12.12-32.41-12.5,32.41h-8.93Z"/><line class="cls-2" x1="10" y1="53.2" x2="10" y2="172.35"/><line class="cls-2" x1="60.64" y1="10" x2="60.64" y2="215.55"/><line class="cls-2" x1="111.29" y1="53.2" x2="111.29" y2="172.35"/><line class="cls-2" x1="161.93" y1="10" x2="161.93" y2="215.55"/><line class="cls-2" x1="212.58" y1="53.2" x2="212.58" y2="172.35"/></svg>