<svg id="圖層_1" data-name="圖層 1" xmlns="http://www.w3.org/2000/svg" viewBox="0 0 572.75 81.75"><defs><style>.cls-1{fill:#fff;}</style></defs><path class="cls-1" d="M29.48,22a30.16,30.16,0,0,1,15.13,4,29.48,29.48,0,0,1,15,25.82,29.8,29.8,0,0,1-4,15,28.8,28.8,0,0,1-10.9,11,30.11,30.11,0,0,1-15.21,4,28.38,28.38,0,0,1-20.88-8.7A28.86,28.86,0,0,1,0,51.9,28.78,28.78,0,0,1,9.77,29.69,28.57,28.57,0,0,1,29.48,22Zm.24,13.44A14.7,14.7,0,0,0,18.64,40a16.43,16.43,0,0,0-4.42,11.84q0,7.42,4.37,12a14.59,14.59,0,0,0,11.07,4.6,14.81,14.81,0,0,0,11.16-4.65,16.63,16.63,0,0,0,4.45-12q0-7.32-4.38-11.89A14.77,14.77,0,0,0,29.72,35.39Z"/><path class="cls-1" d="M71.3,23.42H85.57v5.82a34.36,34.36,0,0,1,8.79-5.69,21.41,21.41,0,0,1,8.06-1.6,19.52,19.52,0,0,1,14.36,5.91q4.95,5,5,14.84V80.29H107.62V55.38q0-10.17-.91-13.52a9.29,9.29,0,0,0-3.18-5.09A8.88,8.88,0,0,0,97.92,35a10.53,10.53,0,0,0-7.43,2.9,15.51,15.51,0,0,0-4.3,8q-.63,2.67-.62,11.54V80.29H71.3Z"/><path class="cls-1" d="M134,1.46h14.27V80.29H134Z"/><path class="cls-1" d="M166.77,0a8.72,8.72,0,0,1,6.43,2.72,9,9,0,0,1,2.69,6.58,8.92,8.92,0,0,1-2.66,6.51,8.6,8.6,0,0,1-6.36,2.69,8.74,8.74,0,0,1-6.49-2.74A9.17,9.17,0,0,1,157.7,9.1a8.73,8.73,0,0,1,2.66-6.43A8.7,8.7,0,0,1,166.77,0Zm-7.14,23.42H173.9V80.29H159.63Z"/><path class="cls-1" d="M186.87,23.42h14.26v5.82a34.57,34.57,0,0,1,8.8-5.69A21.37,21.37,0,0,1,218,22a19.52,19.52,0,0,1,14.36,5.91q5,5,5,14.84V80.29H223.19V55.38q0-10.17-.91-13.52a9.29,9.29,0,0,0-3.18-5.09A8.88,8.88,0,0,0,213.49,35a10.53,10.53,0,0,0-7.43,2.9,15.44,15.44,0,0,0-4.3,8q-.63,2.67-.63,11.54V80.29H186.87Z"/><path class="cls-1" d="M308.08,56H262.24a15.25,15.25,0,0,0,5.3,9.64,16.67,16.67,0,0,0,11,3.59,19,19,0,0,0,13.74-5.6l12,5.65a28.43,28.43,0,0,1-10.77,9.43,33.66,33.66,0,0,1-14.9,3.06q-13.38,0-21.8-8.44t-8.41-21.14q0-13,8.39-21.62t21-8.6q13.42,0,21.85,8.6t8.41,22.71ZM293.81,44.74A14.25,14.25,0,0,0,288.23,37a16.12,16.12,0,0,0-9.66-3,17.07,17.07,0,0,0-10.47,3.34q-2.82,2.1-5.23,7.37Z"/><path class="cls-1" d="M351.2,3.4h17.34q16.77,0,24.91,4.15t13.42,13.51q5.28,9.36,5.28,21.85a44.14,44.14,0,0,1-2.95,16.34,34.07,34.07,0,0,1-8.15,12.36A28.67,28.67,0,0,1,389.8,78.4q-6.06,1.89-21,1.89H351.2Zm14.53,14.11V66h6.8q10,0,14.55-2.31a17.39,17.39,0,0,0,7.4-7.74,28.37,28.37,0,0,0,2.88-13.4q0-12.24-6.85-19-6.17-6.07-19.81-6.07Z"/><path class="cls-1" d="M466.51,23.42h14.27V80.29H466.51v-6A28.26,28.26,0,0,1,458.13,80,23.4,23.4,0,0,1,449,81.75q-11,0-19.06-8.55t-8-21.24q0-13.18,7.78-21.59A24.8,24.8,0,0,1,448.6,22a24.06,24.06,0,0,1,9.61,1.94,26.21,26.21,0,0,1,8.3,5.8Zm-15,11.71a14.43,14.43,0,0,0-11,4.67,16.86,16.86,0,0,0-4.38,12,17.09,17.09,0,0,0,4.45,12.13,14.44,14.44,0,0,0,11,4.75A14.7,14.7,0,0,0,462.71,64q4.43-4.66,4.43-12.25,0-7.43-4.43-12A14.88,14.88,0,0,0,451.51,35.13Z"/><path class="cls-1" d="M488.91,23.42h14l11.44,32.35,12.3-32.35h8.55l12.08,32,11.45-32h14.06L552,80.29h-9L530.83,47.88l-12.5,32.41H509.4Z"/></svg>