<?xml version="1.0" encoding="utf-8"?>
<!-- Generator: Adobe Illustrator 26.3.1, SVG Export Plug-In . SVG Version: 6.00 Build 0)  -->
<svg version="1.1" id="圖層_1" xmlns="http://www.w3.org/2000/svg" xmlns:xlink="http://www.w3.org/1999/xlink" x="0px" y="0px"
	 viewBox="0 0 100 88.8" style="enable-background:new 0 0 100 88.8;" xml:space="preserve">
<style type="text/css">
	.st0{fill:#262626;}
</style>
<path class="st0" d="M98.2,8.7c-2.4-2.4-6.3-2.4-8.7,0c0,0,0,0,0,0L65.7,32.6L55.5,8.7C50.7,0.4,40-2.5,31.6,2.3
	c-2.6,1.5-4.9,3.7-6.4,6.4L2.4,62.6c-4.8,8.3-2,19,6.4,23.9c2.7,1.5,5.7,2.3,8.7,2.3h45.8c9.6,0,17.5-7.8,17.5-17.5
	c0-3.1-0.8-6.1-2.3-8.7l-7.6-17.8l27.4-27.4C100.6,15,100.6,11.1,98.2,8.7C98.2,8.7,98.2,8.7,98.2,8.7z"/>
</svg>
