<?xml version="1.0" encoding="utf-8"?>
<!-- Generator: Adobe Illustrator 26.3.1, SVG Export Plug-In . SVG Version: 6.00 Build 0)  -->
<svg version="1.1" id="圖層_1" xmlns="http://www.w3.org/2000/svg" xmlns:xlink="http://www.w3.org/1999/xlink" x="0px" y="0px"
	 viewBox="0 0 24 24" style="enable-background:new 0 0 24 24;" xml:space="preserve">
<style type="text/css">
	.st0{fill:#262626;}
</style>
<path class="st0" d="M19,3H5C3.3,3,2,4.3,2,6v12c0,1.7,1.3,3,3,3h14c1.7,0,3-1.3,3-3V6C22,4.3,20.7,3,19,3z M19,19H5
	c-0.6,0-1-0.4-1-1v-6h2v4h2v-4h1v4h2v-4h1v4h2v-4h2v4h2v-4h2v6C20,18.6,19.6,19,19,19z"/>
</svg>
