<?xml version="1.0" encoding="utf-8"?>
<!-- Generator: Adobe Illustrator 26.3.1, SVG Export Plug-In . SVG Version: 6.00 Build 0)  -->
<svg version="1.1" id="圖層_1" xmlns="http://www.w3.org/2000/svg" xmlns:xlink="http://www.w3.org/1999/xlink" x="0px" y="0px"
	 viewBox="0 0 24 24" style="enable-background:new 0 0 24 24;" xml:space="preserve">
<style type="text/css">
	.st0{fill-rule:evenodd;clip-rule:evenodd;fill:#FFFFFF;}
</style>
<path class="st0" d="M16,9c0,2.2-1.8,4-4,4c-2.2,0-4-1.8-4-4c0-2.2,1.8-4,4-4C14.2,5,16,6.8,16,9z M14,9c0,1.1-0.9,2-2,2s-2-0.9-2-2
	c0-1.1,0.9-2,2-2S14,7.9,14,9z"/>
<path class="st0" d="M12,1C5.9,1,1,5.9,1,12c0,6.1,4.9,11,11,11c6.1,0,11-4.9,11-11C23,5.9,18.1,1,12,1z M3,12c0,2.1,0.7,4,1.9,5.5
	c1.6-2.2,4.2-3.5,7.2-3.5c2.9,0,5.4,1.4,7.1,3.5c1.2-1.5,1.8-3.4,1.8-5.5c0-5-4-9-9-9C7,3,3,7,3,12z M12,21c-2.2,0-4.1-0.8-5.7-2
	c1.3-1.8,3.4-3,5.7-3c2.3,0,4.4,1.2,5.7,2.9C16.2,20.2,14.2,21,12,21z"/>
</svg>
